<svg width="76" height="39" viewBox="0 0 76 39" fill="none" xmlns="http://www.w3.org/2000/svg">
<path d="M22.3349 15.6555H24.6723C24.7624 15.6555 24.843 15.5991 24.8738 15.5144L28.9797 4.24642C29.1226 3.85473 29.065 3.41693 28.826 3.07533C28.5868 2.73365 28.1951 2.52976 27.7783 2.52976C27.2326 2.52976 26.7469 2.87625 26.5692 3.39196L23.5085 12.2713L20.4568 3.39295C20.2796 2.87661 19.7934 2.52976 19.246 2.52976C18.8231 2.52976 18.4415 2.72833 18.1987 3.07462C17.9562 3.42069 17.8996 3.84728 18.0437 4.24486L22.1332 15.5142C22.1639 15.599 22.2445 15.6555 22.3349 15.6555ZM33.2836 15.7296V8.11202C33.2836 7.42889 32.7279 6.87303 32.0447 6.87303C31.3616 6.87303 30.8059 7.42889 30.8059 8.11202V15.7296C30.8059 15.848 30.9018 15.9441 31.0203 15.9441H33.0692C33.1877 15.9441 33.2836 15.848 33.2836 15.7296ZM32.0688 5.39226C32.4852 5.39226 32.8436 5.24484 33.1343 4.95432C33.4248 4.66372 33.5721 4.31176 33.5721 3.9083C33.5721 3.63126 33.5013 3.3777 33.3614 3.15415C33.2282 2.94223 33.0507 2.76664 32.8343 2.63249C32.6142 2.49592 32.3628 2.42064 32.1073 2.41475C31.6907 2.40461 31.322 2.55438 31.0256 2.85916C30.7395 3.1528 30.5943 3.50575 30.5943 3.9083C30.5943 4.3112 30.7397 4.66287 31.0264 4.95332C31.3136 5.24455 31.6642 5.39226 32.0688 5.39226ZM53.8617 5.39226C54.2779 5.39226 54.6363 5.24484 54.927 4.95432C55.2178 4.66358 55.365 4.31169 55.365 3.9083C55.365 3.63104 55.294 3.37734 55.1541 3.15429C54.9683 2.85838 54.6987 2.63575 54.3526 2.49237C54.3039 2.47229 54.2509 2.45654 54.1998 2.44703C53.6501 2.34353 53.1851 2.48251 52.8183 2.85916C52.5322 3.1528 52.387 3.50575 52.387 3.9083C52.387 4.3112 52.5324 4.66287 52.8192 4.95339C53.1066 5.24455 53.4574 5.39226 53.8617 5.39226ZM53.8376 6.87303C53.1543 6.87303 52.5986 7.42889 52.5986 8.11202V15.7296C52.5986 15.848 52.6945 15.9441 52.8131 15.9441H54.8621C54.9807 15.9441 55.0766 15.848 55.0766 15.7296V8.11202C55.0766 7.42889 54.5209 6.87303 53.8376 6.87303ZM62.9492 6.87303C62.2661 6.87303 61.7104 7.42889 61.7104 8.11202V15.7296C61.7104 15.848 61.8064 15.9441 61.9249 15.9441H63.9737C64.0922 15.9441 64.1882 15.848 64.1882 15.7296V8.11202C64.1882 7.42889 63.6325 6.87303 62.9492 6.87303ZM62.9733 5.39226C63.3895 5.39226 63.7479 5.24484 64.0386 4.95432C64.3292 4.66394 64.4766 4.3119 64.4766 3.9083C64.4766 3.63126 64.4058 3.3777 64.2659 3.15408C64.1323 2.94188 63.9548 2.76643 63.7389 2.63249C63.5187 2.49592 63.2674 2.42064 63.0118 2.41475C62.5939 2.40461 62.2265 2.55438 61.9301 2.85916C61.6438 3.15294 61.4986 3.50589 61.4986 3.9083C61.4986 4.31105 61.6442 4.66266 61.931 4.95332C62.2181 5.24455 62.5688 5.39226 62.9733 5.39226ZM35.3775 15.6555H37.4263C37.5448 15.6555 37.6408 15.5594 37.6408 15.441V11.2087C37.6408 10.9444 37.7093 10.6526 37.8442 10.3418C37.9778 10.0339 38.1768 9.76562 38.4359 9.54427C38.6835 9.33292 38.9824 9.23019 39.35 9.23019C39.6519 9.23019 39.9062 9.27439 40.1056 9.3613C40.1722 9.39046 40.2321 9.41969 40.2849 9.44885C40.4133 9.52008 40.5604 9.53497 40.7005 9.49085C40.8395 9.447 40.956 9.34647 41.0203 9.2148L41.5505 8.12983C41.6136 8.00071 41.6226 7.85492 41.5754 7.71941C41.5281 7.58355 41.4304 7.47422 41.3004 7.41193C41.1992 7.36319 41.0786 7.31375 40.9413 7.26486C40.6305 7.15469 40.2763 7.09878 39.8886 7.09878C39.3479 7.09878 38.8764 7.20619 38.4875 7.41818C38.1062 7.62591 37.8023 7.86286 37.5842 8.12266C37.5782 8.12997 37.5721 8.13721 37.566 8.14437C37.3926 7.66947 36.9361 7.32949 36.4018 7.32949C35.7187 7.32949 35.163 7.88521 35.163 8.56834V15.441C35.163 15.5594 35.259 15.6555 35.3775 15.6555ZM48.3789 11.496C48.3789 11.9657 48.2886 12.3626 48.1028 12.709C47.9193 13.049 47.6669 13.3169 47.3517 13.5059C47.0368 13.6972 46.6713 13.7942 46.2656 13.7942C45.8873 13.7942 45.5302 13.6996 45.2034 13.5125C44.8755 13.3271 44.6055 13.0591 44.4016 12.7167C44.195 12.3678 44.0947 11.9685 44.0947 11.496C44.0947 11.0311 44.1977 10.6222 44.4016 10.2803C44.6062 9.93482 44.8762 9.66431 45.2052 9.47588C45.5341 9.28546 45.8808 9.19287 46.2656 9.19287C46.6724 9.19287 47.0375 9.2905 47.3508 9.48304C47.6671 9.67729 47.9202 9.94731 48.1026 10.2849C48.2859 10.6267 48.3789 11.0342 48.3789 11.496ZM50.3031 7.32928H48.9625C48.6518 7.32928 48.399 7.58199 48.399 7.89273V8.20744C48.3705 8.1768 48.3405 8.14558 48.3094 8.11394C48.045 7.84697 47.6954 7.60923 47.2708 7.40732C46.8414 7.20314 46.3284 7.0997 45.7465 7.0997C44.97 7.0997 44.2629 7.28977 43.6447 7.66429C43.0226 8.03859 42.527 8.56231 42.1718 9.2209C41.817 9.87828 41.637 10.6438 41.637 11.496C41.637 12.3499 41.817 13.1162 42.1718 13.7737C42.526 14.4298 43.0213 14.9527 43.6454 15.3281C44.2664 15.6991 44.9734 15.8874 45.7465 15.8874C46.3433 15.8874 46.8707 15.7682 47.3132 15.5335C47.7456 15.3069 48.0957 15.046 48.3544 14.7575C48.3758 14.7334 48.3965 14.7098 48.4164 14.6868V15.5382C48.4164 15.9819 48.3265 16.3762 48.1497 16.7097C47.9708 17.0448 47.721 17.3019 47.3862 17.4954C47.053 17.6868 46.6407 17.7839 46.1607 17.7839C45.6544 17.7839 45.2356 17.7252 44.916 17.6093C44.5925 17.4931 44.3335 17.3513 44.1445 17.187C43.9462 17.0164 43.7807 16.8495 43.6529 16.6911C43.6148 16.6437 43.5584 16.6148 43.4979 16.6115C43.439 16.6084 43.3781 16.6306 43.335 16.6734L42.0549 17.9433C41.9791 18.0185 41.9701 18.1379 42.0337 18.2235C42.3027 18.5858 42.6552 18.8949 43.0808 19.1418C43.4931 19.3825 43.9776 19.5685 44.5203 19.6944C45.0427 19.8156 45.6232 19.877 46.2455 19.877C47.0925 19.877 47.8738 19.7171 48.5678 19.4011C49.2671 19.0816 49.8312 18.6033 50.2446 17.9793C50.6572 17.3536 50.8665 16.5743 50.8665 15.6629V7.89273C50.8665 7.58199 50.6137 7.32928 50.3031 7.32928ZM58.5051 1.99121C57.8168 1.99121 57.2567 2.55132 57.2567 3.23978V15.441C57.2567 15.5594 57.3526 15.6554 57.4712 15.6554H59.5391C59.6577 15.6554 59.7536 15.5594 59.7536 15.441V3.23978C59.7536 2.55132 59.1935 1.99121 58.5051 1.99121ZM68.0832 11.507C68.0832 11.0754 68.1707 10.686 68.3431 10.3494C68.5137 10.017 68.7569 9.7488 69.0659 9.55257C69.3725 9.35775 69.7399 9.259 70.158 9.259C70.5754 9.259 70.9412 9.35754 71.2445 9.552C71.5499 9.74802 71.7897 10.0159 71.9575 10.3481C72.1274 10.6851 72.2135 11.0751 72.2135 11.507C72.2135 11.9386 72.1274 12.3265 71.9577 12.66C71.7906 12.9885 71.5516 13.2513 71.247 13.4409C70.9433 13.63 70.5769 13.7259 70.158 13.7259C69.7386 13.7259 69.3704 13.6299 69.0633 13.4404C68.7554 13.2505 68.5128 12.9875 68.3427 12.6586C68.1706 12.3257 68.0832 11.9382 68.0832 11.507ZM67.8452 15.3153C68.5193 15.6941 69.2973 15.8862 70.158 15.8862C71.0191 15.8862 71.7927 15.6939 72.4573 15.3147C73.1224 14.9353 73.6521 14.4105 74.0323 13.7546C74.412 13.0991 74.6046 12.3461 74.6046 11.5165C74.6046 10.6876 74.4122 9.93014 74.0329 9.26517C73.6533 8.60013 73.1236 8.06711 72.4588 7.68089C71.7937 7.29459 71.0196 7.09878 70.158 7.09878C69.2969 7.09878 68.5185 7.29438 67.8438 7.68011C67.1691 8.06626 66.6327 8.59935 66.2498 9.26446C65.8669 9.92936 65.6729 10.687 65.6729 11.5165C65.6729 12.3466 65.8673 13.0999 66.2504 13.7554C66.6337 14.4113 67.1703 14.936 67.8452 15.3153ZM29.0931 23.6112C28.3126 23.6112 27.6214 24.1083 27.3728 24.8481L24.6099 33.0701L21.8648 24.8512C21.617 24.1096 20.9251 23.6112 20.1358 23.6112C19.1352 23.6112 18.3211 24.4254 18.3211 25.4262V36.5224C18.3211 36.6409 18.417 36.7369 18.5355 36.7369H20.5554C20.674 36.7369 20.7699 36.6409 20.7699 36.5224L20.7695 28.5009L23.0728 34.8513C23.307 35.4959 23.9247 35.9289 24.6103 35.9289C25.2953 35.9289 25.9128 35.4964 26.147 34.853L28.459 28.5012V36.5224C28.459 36.6409 28.555 36.7369 28.6735 36.7369H30.6936C30.8122 36.7369 30.9081 36.6409 30.9081 36.5224V25.4262C30.9081 24.4254 30.0939 23.6112 29.0931 23.6112ZM39.2511 32.5787C39.2511 33.0407 39.158 33.4483 38.974 33.7901C38.7912 34.129 38.539 34.3977 38.2243 34.5884C37.9106 34.7784 37.545 34.8747 37.1378 34.8747C36.76 34.8747 36.4024 34.7805 36.0751 34.5948C35.747 34.4091 35.4774 34.1407 35.2736 33.7967C35.07 33.454 34.967 33.0441 34.967 32.5787C34.967 32.1135 35.07 31.7036 35.2736 31.3607C35.4778 31.0164 35.7479 30.7461 36.0763 30.5572C36.4039 30.3688 36.761 30.2732 37.1378 30.2732C37.5444 30.2732 37.9096 30.3709 38.2229 30.5635C38.5384 30.7576 38.791 31.0282 38.9738 31.3676C39.158 31.7092 39.2511 32.1166 39.2511 32.5787ZM40.5044 28.4109C39.9315 28.4109 39.4483 28.8034 39.31 29.3336C39.2698 29.2888 39.2269 29.243 39.1806 29.1963C38.9175 28.9295 38.5687 28.6916 38.1439 28.4896C37.713 28.2843 37.1998 28.1802 36.6184 28.1802C35.8448 28.1802 35.1377 28.3702 34.5166 28.7449C33.8964 29.1189 33.4008 29.6431 33.0441 30.3028C32.6886 30.9599 32.5084 31.7256 32.5084 32.5787C32.5084 33.432 32.6886 34.1976 33.0441 34.8547C33.4008 35.5147 33.8965 36.0374 34.5175 36.4083C35.1385 36.7795 35.8453 36.9676 36.6184 36.9676C37.2156 36.9676 37.7428 36.8493 38.1852 36.616C38.6192 36.3874 38.9694 36.1257 39.2265 35.838C39.2482 35.8137 39.2692 35.7897 39.2895 35.7662V36.5224C39.2895 36.6409 39.3854 36.7369 39.504 36.7369H41.5241C41.6426 36.7369 41.7386 36.6409 41.7386 36.5224V29.6451C41.7386 28.9646 41.185 28.4109 40.5044 28.4109ZM46.5467 30.5518C46.8642 30.3669 47.2002 30.2732 47.545 30.2732C47.8322 30.2732 48.0789 30.3107 48.2782 30.3848C48.4834 30.461 48.6493 30.5442 48.7748 30.6346C48.925 30.7432 49.1147 30.783 49.2955 30.744C49.4756 30.7051 49.6315 30.5908 49.723 30.4307L50.147 29.6888C50.324 29.3793 50.2189 28.9826 49.9124 28.8043C49.8697 28.7795 49.8238 28.7535 49.7745 28.7262C49.5167 28.5841 49.1926 28.4565 48.8112 28.3472C48.4249 28.2364 47.9828 28.1802 47.4971 28.1802C46.6839 28.1802 45.9342 28.3531 45.2685 28.6943C44.598 29.0381 44.0549 29.5436 43.6542 30.1965C43.2535 30.8498 43.0503 31.648 43.0503 32.5692C43.0503 33.4838 43.2535 34.2803 43.6539 34.9365C44.0542 35.5927 44.5972 36.1013 45.2677 36.4483C45.9331 36.7929 46.6832 36.9676 47.4971 36.9676C47.9876 36.9676 48.4354 36.9134 48.828 36.8064C49.2159 36.7003 49.5421 36.5799 49.8049 36.4448C49.9834 36.3531 50.1145 36.1887 50.1646 35.9938C50.215 35.7974 50.1791 35.5881 50.0657 35.4197L49.6537 34.808C49.447 34.5011 49.0473 34.4044 48.7235 34.5833C48.6721 34.6117 48.6162 34.6418 48.5559 34.6736C48.3029 34.807 47.9627 34.8747 47.545 34.8747C47.1998 34.8747 46.864 34.781 46.5467 34.5961C46.2277 34.4105 45.9623 34.1415 45.7576 33.7969C45.5542 33.4536 45.451 33.0406 45.451 32.5692C45.451 32.098 45.554 31.6868 45.7572 31.3473C45.9617 31.0055 46.2273 30.7379 46.5467 30.5518ZM56.8996 30.953C56.9702 31.094 57.0206 31.225 57.0508 31.3447H53.4272C53.4675 31.2164 53.528 31.0808 53.6084 30.939C53.7373 30.7125 53.9419 30.5117 54.2171 30.3423C54.4894 30.1752 54.8562 30.0905 55.3072 30.0905C55.7423 30.0905 56.0902 30.1767 56.3411 30.3469C56.5975 30.5206 56.7854 30.7245 56.8996 30.953ZM57.4681 28.687C56.8487 28.3507 56.1119 28.1802 55.2785 28.1802C54.3847 28.1802 53.6053 28.3714 52.9625 28.7482C52.3175 29.1265 51.819 29.649 51.4811 30.3014C51.1459 30.9481 50.9761 31.682 50.9761 32.4827C50.9761 33.3745 51.1612 34.1663 51.5263 34.8361C51.894 35.5106 52.4191 36.0407 53.0871 36.4116C53.7513 36.7806 54.5404 36.9676 55.4325 36.9676C56.1026 36.9676 56.6759 36.9053 57.1369 36.7826C57.6055 36.6579 58.0053 36.4805 58.3257 36.2556C58.4666 36.1567 58.5992 36.0497 58.7198 35.9379C59.0336 35.6472 59.0756 35.1636 58.8175 34.8132L58.6526 34.5892C58.515 34.4023 58.3126 34.2831 58.0825 34.2537C57.8516 34.2244 57.6128 34.2924 57.423 34.4463C57.2239 34.6074 56.9671 34.7482 56.6595 34.8647C56.3558 34.9798 55.9848 35.0381 55.5573 35.0381C55.0686 35.0381 54.6539 34.9509 54.3244 34.7788C53.9972 34.6081 53.7569 34.3798 53.59 34.0807C53.4555 33.8395 53.3703 33.57 53.3355 33.277L58.8233 33.341H58.8302C59.1564 33.341 59.4253 33.0778 59.4318 32.7464C59.435 32.5843 59.4367 32.4771 59.4367 32.4249C59.4367 31.547 59.2645 30.7828 58.9251 30.1538C58.5824 29.5201 58.0922 29.0266 57.4681 28.687ZM67.0644 28.8003C67.0143 28.6587 66.9119 28.5457 66.7757 28.4819C66.679 28.4368 66.5665 28.3913 66.4406 28.3463C66.1297 28.2362 65.7755 28.1802 65.3878 28.1802C64.8472 28.1802 64.3757 28.2877 63.9867 28.4997C63.6055 28.7073 63.3015 28.9445 63.0835 29.2041C63.0774 29.2115 63.0711 29.2188 63.0652 29.2261C62.8918 28.751 62.4354 28.4109 61.901 28.4109C61.218 28.4109 60.6622 28.9666 60.6622 29.6498V36.5224C60.6622 36.6409 60.7582 36.7369 60.8767 36.7369H62.9253C63.0439 36.7369 63.1398 36.6409 63.1398 36.5224V32.2901C63.1398 32.0261 63.2083 31.7344 63.3436 31.4232C63.4769 31.1153 63.6761 30.847 63.9352 30.6258C64.1826 30.4145 64.4817 30.3118 64.8491 30.3118C65.1513 30.3118 65.4056 30.3558 65.6046 30.4428C65.6633 30.4685 65.7169 30.4942 65.7651 30.5198C65.9008 30.593 66.0554 30.6072 66.201 30.5601C66.3459 30.5134 66.463 30.4119 66.5304 30.2741L67.0392 29.2329C67.1059 29.0965 67.1147 28.9429 67.0644 28.8003ZM73.6087 32.5885C73.6087 33.0202 73.5227 33.4081 73.353 33.7415C73.186 34.07 72.9469 34.3326 72.6423 34.5224C72.3385 34.7115 71.9722 34.8074 71.5531 34.8074C71.1337 34.8074 70.7654 34.7114 70.4586 34.5219C70.1505 34.3319 69.9081 34.0689 69.738 33.7402C69.5658 33.4072 69.4785 33.0197 69.4785 32.5885C69.4785 32.1568 69.566 31.7675 69.7384 31.4311C69.9089 31.0986 70.1521 30.8304 70.4611 30.634C70.7678 30.4392 71.1351 30.3404 71.5531 30.3404C71.9707 30.3404 72.3364 30.4391 72.6397 30.6334C72.9452 30.8295 73.1852 31.0975 73.3527 31.4297C73.5227 31.7666 73.6087 32.1564 73.6087 32.5885ZM75.4282 30.3467C75.0484 29.6815 74.5187 29.1484 73.8538 28.7623C73.189 28.3761 72.4148 28.1802 71.5531 28.1802C70.6921 28.1802 69.9137 28.3759 69.239 28.7616C68.5644 29.1477 68.0279 29.6807 67.645 30.3459C67.2621 31.0111 67.0679 31.7687 67.0679 32.598C67.0679 33.4278 67.2623 34.1811 67.6457 34.8369C68.029 35.4927 68.5656 36.0175 69.2405 36.3967C69.9144 36.7756 70.6924 36.9677 71.5531 36.9677C72.4146 36.9677 73.1881 36.7754 73.8523 36.3961C74.5174 36.0169 75.0473 35.492 75.4275 34.836C75.8075 34.1803 76 33.4272 76 32.598C76 31.7693 75.8077 31.0118 75.4282 30.3467Z" fill="#100E8D" style="fill:#100E8D;fill:color(display-p3 0.0627 0.0549 0.5529);fill-opacity:1;"/>
<path d="M0.84581 15.9061L0.0170969 22.4956C-0.131676 23.679 0.70697 24.7589 1.89027 24.9077L11.2931 26.0902C12.4765 26.2389 13.5564 25.4003 13.7052 24.217L14.5338 17.6274C14.6826 16.4441 13.844 15.3641 12.6607 15.2153L3.25781 14.0329C2.07451 13.8841 0.994582 14.7227 0.84581 15.9061Z" fill="#2B48C1" style="fill:#2B48C1;fill:color(display-p3 0.1686 0.2824 0.7569);fill-opacity:1;"/>
<path d="M3.51368 33.7472L11.4277 32.9147C12.8131 32.769 14.0542 33.774 14.2 35.1593C14.3457 36.5447 13.3408 37.7858 11.9555 37.9316L4.04137 38.764C2.65602 38.9098 1.41483 37.9048 1.26911 36.5195C1.12339 35.1341 2.12833 33.8929 3.51368 33.7472Z" fill="#100E8D" style="fill:#100E8D;fill:color(display-p3 0.0627 0.0549 0.5529);fill-opacity:1;"/>
<path d="M2.98945 28.7635L10.9035 27.931C12.2888 27.7853 13.53 28.7903 13.6757 30.1756C13.8215 31.561 12.8166 32.8021 11.4312 32.9479L3.51714 33.7803C2.13179 33.9261 0.8906 32.9211 0.744879 31.5358C0.599157 30.1504 1.60403 28.9092 2.98945 28.7635Z" fill="#100E8D" style="fill:#100E8D;fill:color(display-p3 0.0627 0.0549 0.5529);fill-opacity:1;"/>
<path d="M13.4642 12.0965L2.87411 12.5471C2.0405 12.5827 1.48109 11.7024 1.86718 10.9628L6.77191 1.56613C7.158 0.82645 8.19997 0.78211 8.6475 1.48631L14.3328 10.4322C14.7804 11.1364 14.2978 12.061 13.4642 12.0965Z" fill="#58AAF4" style="fill:#58AAF4;fill:color(display-p3 0.3451 0.6667 0.9569);fill-opacity:1;"/>
</svg>
